<?xml version="1.0" encoding="UTF-8"?>
<svg width="48px" height="48px" viewBox="0 0 48 48" version="1.1" xmlns="http://www.w3.org/2000/svg" xmlns:xlink="http://www.w3.org/1999/xlink">
    <!-- Generator: Sketch 47.1 (45422) - http://www.bohemiancoding.com/sketch -->
    <title>actions / details</title>
    <desc>Created with Sketch.</desc>
    <defs>
        <path d="M24,38 C16.2680135,38 10,31.7319865 10,24 C10,16.2680135 16.2680135,10 24,10 C31.7319865,10 38,16.2680135 38,24 C38,31.7319865 31.7319865,38 24,38 Z M24,36 C30.627417,36 36,30.627417 36,24 C36,17.372583 30.627417,12 24,12 C17.372583,12 12,17.372583 12,24 C12,30.627417 17.372583,36 24,36 Z M22.5791016,32 L22.5791016,21.2285156 L25.4208984,21.2285156 L25.4208984,32 L22.5791016,32 Z M24.0048828,19.7246094 C22.9794922,19.7246094 22.3251953,19.1289062 22.3251953,18.2890625 C22.3251953,17.4394531 22.9794922,16.8535156 24.0048828,16.8535156 C25.0205078,16.8535156 25.6845703,17.4394531 25.6845703,18.2890625 C25.6845703,19.1289062 25.0205078,19.7246094 24.0048828,19.7246094 Z" id="path-1"></path>
    </defs>
    <g id="Symbols" stroke="none" stroke-width="1" fill="none" fill-rule="evenodd">
        <g id="actions-/-details">
            <mask id="mask-2" fill="white">
                <use xlink:href="#path-1"></use>
            </mask>
            <use id="shape" fill="#FFFFFF" fill-rule="nonzero" xlink:href="#path-1"></use>
        </g>
    </g>
</svg>