<?xml version="1.0" encoding="UTF-8"?>
<svg width="48px" height="48px" viewBox="0 0 48 48" version="1.1" xmlns="http://www.w3.org/2000/svg" xmlns:xlink="http://www.w3.org/1999/xlink">
    <!-- Generator: Sketch 47.1 (45422) - http://www.bohemiancoding.com/sketch -->
    <title>actions / settings</title>
    <desc>Created with Sketch.</desc>
    <defs>
        <path d="M20.09292,38 C18.9538857,37.6827961 17.871219,37.2303189 16.8633197,36.6609683 L17.1699395,32.493229 C16.5576521,32.0002147 15.9997853,31.4423479 15.506771,30.8300605 L11.3390317,31.1366803 C10.7696811,30.128781 10.3172039,29.0461143 10,27.90708 L13.1643038,25.1764644 C13.1228229,24.7899975 13.101544,24.3974837 13.101544,24 C13.101544,23.6025163 13.1228229,23.2100025 13.1643038,22.8235356 L10,20.09292 C10.3172039,18.9538857 10.7696811,17.871219 11.3390317,16.8633197 L15.506771,17.1699395 C15.9997853,16.5576521 16.5576521,15.9997853 17.1699395,15.506771 L16.8633197,11.3390317 C17.871219,10.7696811 18.9538857,10.3172039 20.09292,10 L22.8235356,13.1643038 C23.2100025,13.1228229 23.6025163,13.101544 24,13.101544 C24.3974837,13.101544 24.7899975,13.1228229 25.1764644,13.1643038 L27.90708,10 C29.0461143,10.3172039 30.128781,10.7696811 31.1366803,11.3390317 L30.8300605,15.506771 C31.4423479,15.9997853 32.0002147,16.5576521 32.493229,17.1699395 L36.6609683,16.8633197 C37.2303189,17.871219 37.6827961,18.9538857 38,20.09292 L34.8356962,22.8235356 C34.8771771,23.2100025 34.898456,23.6025163 34.898456,24 C34.898456,24.3974837 34.8771771,24.7899975 34.8356962,25.1764644 L38,27.90708 C37.6827961,29.0461143 37.2303189,30.128781 36.6609683,31.1366803 L32.493229,30.8300605 C32.0002147,31.4423479 31.4423479,32.0002147 30.8300605,32.493229 L31.1366803,36.6609683 C30.128781,37.2303189 29.0461143,37.6827961 27.90708,38 L25.1764644,34.8356962 C24.7899975,34.8771771 24.3974837,34.898456 24,34.898456 C23.6025163,34.898456 23.2100025,34.8771771 22.8235356,34.8356962 L20.09292,38 Z M24,29.449228 C27.0095255,29.449228 29.449228,27.0095255 29.449228,24 C29.449228,20.9904745 27.0095255,18.550772 24,18.550772 C20.9904745,18.550772 18.550772,20.9904745 18.550772,24 C18.550772,27.0095255 20.9904745,29.449228 24,29.449228 Z" id="path-1"></path>
    </defs>
    <g id="Symbols" stroke="none" stroke-width="1" fill="none" fill-rule="evenodd">
        <g id="actions-/-settings">
            <mask id="mask-2" fill="white">
                <use xlink:href="#path-1"></use>
            </mask>
            <use id="Combined-Shape" fill="#FFFFFF" xlink:href="#path-1"></use>
        </g>
    </g>
</svg>