<?xml version="1.0" encoding="UTF-8"?>
<svg width="48px" height="48px" viewBox="0 0 48 48" version="1.1" xmlns="http://www.w3.org/2000/svg" xmlns:xlink="http://www.w3.org/1999/xlink">
    <!-- Generator: Sketch 47.1 (45422) - http://www.bohemiancoding.com/sketch -->
    <title>actions / share</title>
    <desc>Created with Sketch.</desc>
    <defs>
        <path d="M10.9001559,32.8498655 L10.9075737,32.8183592 C10.9050964,32.8288601 10.9026238,32.8393622 10.9001559,32.8498655 Z M24.7878007,14.4520085 C24.7172919,14.2741307 24.7172919,14.2741307 24.6464507,14.0967249 C24.3775443,13.4244589 24.0891134,12.7226105 23.8006461,12.0334941 C23.6275861,11.6200731 23.4931254,11.3031299 23.4166452,11.1246762 C23.0953594,10.3750092 23.9407134,9.66347367 24.6245593,10.1079735 L41.1246138,20.8330089 C41.6180843,21.1537648 41.6266017,21.8732601 41.1408627,22.2056079 L25.4658109,32.9306434 C24.8482105,33.353212 24.032253,32.8013023 24.1945881,32.0707944 L25.6045294,25.7260586 C25.0320608,25.7909239 24.4047806,25.8937915 23.7351586,26.0425964 C21.5089031,26.5373199 19.2825362,27.4278666 17.2210476,28.801998 C15.9010684,29.6821785 14.6939008,30.7887488 13.5895441,32.0771649 C12.5648978,33.2725856 11.6843437,34.5567271 10.9507618,35.8404954 C10.6944393,36.2890597 10.4751932,36.7047138 10.2931889,37.0763059 C10.1857868,37.2955852 10.115754,37.448782 10.0831905,37.5247635 C9.71452643,38.3849796 8.42501916,38.0639207 8.50274037,37.1312662 C8.51515503,36.9822903 8.54311081,36.7127166 8.59049086,36.3395988 C8.66878211,35.7230552 8.77427079,35.0373788 8.91090653,34.2995457 C9.30161128,32.1897401 9.86454221,30.0787491 10.6337716,28.1007307 C11.6344757,25.5274917 12.9131012,23.3698111 14.5165474,21.7663649 C15.5072239,20.7756884 16.6027369,19.9445884 17.7883962,19.2577767 C19.4379213,18.3022636 21.1834241,17.663202 23.0311756,17.2454544 C23.707394,17.092572 24.9339909,16.8938631 25.6540815,16.7852229 C25.4760497,16.2496886 25.1698469,15.4177365 24.7878007,14.4520085 Z" id="path-1"></path>
    </defs>
    <g id="Symbols" stroke="none" stroke-width="1" fill="none" fill-rule="evenodd">
        <g id="actions-/-share">
            <mask id="mask-2" fill="white">
                <use xlink:href="#path-1"></use>
            </mask>
            <use id="Path-2-Copy" fill="#FFFFFF" fill-rule="nonzero" xlink:href="#path-1"></use>
        </g>
    </g>
</svg>